<?xml version="1.0" encoding="UTF-8"?>
<svg width="640" height="400" viewBox="0 0 640 400" fill="none" xmlns="http://www.w3.org/2000/svg">
  <rect width="640" height="400" fill="#f1f5f9"/>
  <g transform="translate(60,220)">
    <rect x="0" y="-60" width="140" height="120" fill="#94a3b8"/>
    <rect x="20" y="-110" width="40" height="50" fill="#94a3b8"/>
    <rect x="80" y="-90" width="40" height="30" fill="#94a3b8"/>
    <rect x="160" y="-80" width="160" height="140" fill="#64748b"/>
    <polygon points="160,-80 200,-120 200,-80" fill="#64748b"/>
    <polygon points="240,-80 280,-130 280,-80" fill="#64748b"/>
    <rect x="340" y="-60" width="120" height="120" fill="#475569"/>
    <rect x="20" y="-40" width="100" height="20" fill="#e2e8f0"/>
    <rect x="180" y="-40" width="60" height="20" fill="#e2e8f0"/>
    <rect x="260" y="-40" width="60" height="20" fill="#e2e8f0"/>
    <rect x="360" y="-40" width="80" height="20" fill="#e2e8f0"/>
  </g>
  <g transform="translate(420,110)">
    <circle cx="0" cy="0" r="38" fill="#334155"/>
    <circle cx="0" cy="0" r="16" fill="#e2e8f0"/>
  </g>
  <text x="50%" y="370" text-anchor="middle" fill="#475569" font-family="Inter, system-ui, Arial" font-size="16">Industry / Raw Materials</text>
</svg>
